<mxfile host="app.diagrams.net" modified="2021-09-01T06:23:56.185Z" agent="5.0 (Macintosh; Intel Mac OS X 10_15_7) AppleWebKit/537.36 (KHTML, like Gecko) Chrome/92.0.4515.159 Safari/537.36" etag="2olmgYC8pFcN6VzZZ-vO" version="15.0.4" type="github">
  <diagram id="6sYQVevWu287LBrWTzv6" name="第 1 页">
    <mxGraphModel dx="1426" dy="794" grid="1" gridSize="10" guides="1" tooltips="1" connect="1" arrows="1" fold="1" page="1" pageScale="1" pageWidth="827" pageHeight="1169" math="0" shadow="0">
      <root>
        <mxCell id="0" />
        <mxCell id="1" parent="0" />
        <mxCell id="pF9mlj2ox5HBTpX8pWFi-1" value="" style="ellipse;whiteSpace=wrap;html=1;aspect=fixed;" vertex="1" parent="1">
          <mxGeometry x="190" y="160" width="460" height="460" as="geometry" />
        </mxCell>
        <mxCell id="pF9mlj2ox5HBTpX8pWFi-2" value="node1&lt;br&gt;" style="outlineConnect=0;dashed=0;verticalLabelPosition=bottom;verticalAlign=top;align=center;html=1;shape=mxgraph.aws3.cache_node;fillColor=#2E73B8;gradientColor=none;" vertex="1" parent="1">
          <mxGeometry x="390" y="120" width="60" height="63" as="geometry" />
        </mxCell>
        <mxCell id="pF9mlj2ox5HBTpX8pWFi-3" value="node2&lt;br&gt;" style="outlineConnect=0;dashed=0;verticalLabelPosition=bottom;verticalAlign=top;align=center;html=1;shape=mxgraph.aws3.cache_node;fillColor=#2E73B8;gradientColor=none;" vertex="1" parent="1">
          <mxGeometry x="610" y="430" width="60" height="63" as="geometry" />
        </mxCell>
        <mxCell id="pF9mlj2ox5HBTpX8pWFi-4" value="node2&lt;br&gt;" style="outlineConnect=0;dashed=0;verticalLabelPosition=bottom;verticalAlign=top;align=center;html=1;shape=mxgraph.aws3.cache_node;fillColor=#2E73B8;gradientColor=none;" vertex="1" parent="1">
          <mxGeometry x="160" y="430" width="60" height="63" as="geometry" />
        </mxCell>
        <mxCell id="pF9mlj2ox5HBTpX8pWFi-6" value="hash func" style="html=1;" vertex="1" parent="1">
          <mxGeometry x="190" y="60" width="110" height="50" as="geometry" />
        </mxCell>
      </root>
    </mxGraphModel>
  </diagram>
</mxfile>
